# xmcd
#
# Track frame offsets:
#	150
#	12112
#	25088
#	37459
#	50849
#	62886
#	74624
#	88237
#	100249
#	112101
#	123824
#	137387
#	149548
#	161398
#	172202
#	184910
#	196675
#	211530
#	221922
#	236529
#
# Disc length: 3321 seconds
#
# Revision: 0
# Processed by: cddbd v1.5.1PL0 Copyright (c) Steve Scherf et al.
# Submitted via: EasyCDDAExtractor 4.6.9.1
#
DISCID=2e0cf714
DTITLE=Various Artist - In The West Where Life Is Free
DYEAR=1900
DGENRE=Western Swing
TTITLE0=BAR X COWBOYS - UNDERNEATH THE SUN
TTITLE1=BAR X COWBOYS - THERE IS A TAVERN IN THE TOWN
TTITLE2=BAR X COWBOYS - I'D LOVE TO LIVE IN LOVELAND (With A Girl Like You)
TTITLE3=CHEROKEE RAMBLERS - HOMEBREW RAG 
TTITLE4=YORK BROTHERS - GOT RAMBLIN' AND GAMBLIN' ON MY MIND
TTITLE5=YORK BROTHERS - NAGGIN' YOUNG WOMAN
TTITLE6=RODIK TWINS - THE UNOPENED LETTER
TTITLE7=RODIK TWINS - WHY DO I CARE 
TTITLE8=RAY WHITLEY'S RANGE RAMBLERS - JUST A LITTLE COUGH DROP
TTITLE9=RAY WHITLEY'S RANGE RAMBLERS - TRAILIN'
TTITLE10=JIMMIE DAVIS - IN THE WEST WHERE LIFE IS FREE
TTITLE11=JIMMIE DAVIS - FAREWELL TO THE RANGE (with Charles Mitchell and his T
TTITLE11=exans)
TTITLE12=TINY DODSON'S CIRCLE-B BOYS - GIRL I LOVE DON'T PAY ME NO MIND
TTITLE13=TINY DODSON'S CIRCLE-B BOYS - KATY DEAR
TTITLE14=BOB DUNN'S VAGABONDS - MARCHETA 
TTITLE15=BOB DUNN'S VAGABONDS - FOUND YOU OUT WHEN I FOUND YOU IN (Somebody El
TTITLE15=se's Arms)
TTITLE16=LOG CABIN BOYS - NEW BROWN'S FERRY BLUES
TTITLE17=JIMMY WAKELY - STANDING OUTSIDE OF HEAVEN
TTITLE18=JENNY LOU CARSON - JEALOUS HEART
TTITLE19=JENNY LOU CARSON - DEAR GOD, WATCH OVER JOE
EXTD=
EXTT0=
EXTT1=
EXTT2=
EXTT3=
EXTT4=
EXTT5=
EXTT6=
EXTT7=
EXTT8=
EXTT9=
EXTT10=
EXTT11=
EXTT12=
EXTT13=
EXTT14=
EXTT15=
EXTT16=
EXTT17=
EXTT18=
EXTT19=
PLAYORDER=
